<svg width="205" height="51" viewBox="0 0 205 51" fill="none" xmlns="http://www.w3.org/2000/svg">
<path d="M180.325 38.4667C177.837 38.4667 175.624 37.8631 173.685 36.6559C171.746 35.4486 170.228 33.8024 169.13 31.7172C168.033 29.5954 167.484 27.1992 167.484 24.5287C167.484 21.8216 168.033 19.4071 169.13 17.2853C170.228 15.1635 171.746 13.5173 173.685 12.3467C175.624 11.1394 177.837 10.5358 180.325 10.5358C182.007 10.5358 183.544 10.8468 184.934 11.4687C186.324 12.054 187.458 12.8954 188.336 13.9929C189.251 15.0904 189.8 16.3342 189.982 17.7243V31.2233C189.8 32.6501 189.251 33.9122 188.336 35.0096C187.458 36.0705 186.324 36.912 184.934 37.5339C183.544 38.1558 182.007 38.4667 180.325 38.4667ZM182.355 29.9612C183.928 29.9612 185.19 29.4491 186.141 28.4248C187.129 27.4004 187.623 26.0835 187.623 24.4738C187.623 23.4129 187.403 22.4801 186.964 21.6753C186.525 20.8704 185.904 20.2302 185.099 19.7547C184.33 19.2791 183.434 19.0413 182.41 19.0413C181.386 19.0413 180.471 19.2791 179.666 19.7547C178.898 20.2302 178.276 20.8887 177.8 21.7301C177.361 22.535 177.142 23.4495 177.142 24.4738C177.142 25.5347 177.361 26.4859 177.8 27.3273C178.239 28.1321 178.861 28.7723 179.666 29.2479C180.471 29.7234 181.367 29.9612 182.355 29.9612ZM187.239 37.918V30.7295L188.611 24.1446L187.239 17.6695V11.0846H196.622V37.918H187.239Z" fill="#111111"/>
<path d="M150.729 37.918V0H160.277V37.918H150.729ZM144.802 19.0413V11.0846H166.203V19.0413H144.802Z" fill="#111111"/>
<path d="M131.429 38.6862C129.783 38.6862 128.155 38.4667 126.545 38.0277C124.972 37.5887 123.491 37.0034 122.101 36.2717C120.747 35.5035 119.595 34.6255 118.644 33.6378L123.857 28.315C124.735 29.2296 125.777 29.9429 126.984 30.4551C128.228 30.9672 129.545 31.2233 130.935 31.2233C131.74 31.2233 132.344 31.1136 132.746 30.8941C133.185 30.6746 133.405 30.3636 133.405 29.9612C133.405 29.3759 133.094 28.9369 132.472 28.6442C131.886 28.315 131.1 28.0406 130.112 27.8211C129.161 27.5651 128.155 27.2724 127.094 26.9432C126.033 26.5773 125.009 26.1018 124.021 25.5164C123.033 24.9311 122.229 24.108 121.607 23.0471C121.021 21.9862 120.729 20.6326 120.729 18.9864C120.729 17.267 121.186 15.7671 122.101 14.4867C123.052 13.1698 124.369 12.1455 126.052 11.4138C127.734 10.6456 129.71 10.2614 131.978 10.2614C134.283 10.2614 136.478 10.6639 138.563 11.4687C140.648 12.2369 142.331 13.4076 143.611 14.9806L138.343 20.3034C137.465 19.3157 136.496 18.6389 135.435 18.2731C134.374 17.8706 133.405 17.6694 132.527 17.6694C131.685 17.6694 131.082 17.7975 130.716 18.0536C130.35 18.2731 130.167 18.584 130.167 18.9864C130.167 19.462 130.46 19.8461 131.045 20.1388C131.667 20.4314 132.454 20.7058 133.405 20.9619C134.392 21.1814 135.398 21.474 136.423 21.8399C137.484 22.2057 138.49 22.7179 139.441 23.3763C140.429 23.9982 141.215 24.8396 141.8 25.9005C142.422 26.9614 142.733 28.3333 142.733 30.0161C142.733 32.6866 141.709 34.8084 139.66 36.3815C137.612 37.918 134.868 38.6862 131.429 38.6862Z" fill="#111111"/>
<path d="M104.392 38.5216C101.393 38.5216 98.7403 37.9362 96.4356 36.7656C94.1309 35.5584 92.32 33.8939 91.003 31.7721C89.6861 29.6503 89.0276 27.2175 89.0276 24.4738C89.0276 21.7667 89.6678 19.3705 90.9482 17.2853C92.2286 15.1635 93.9663 13.499 96.1612 12.2918C98.3928 11.048 100.899 10.4261 103.679 10.4261C106.386 10.4261 108.782 11.0114 110.867 12.182C112.989 13.3161 114.635 14.9074 115.806 16.9561C117.013 18.9681 117.617 21.2728 117.617 23.8702C117.617 24.4189 117.58 24.986 117.507 25.5713C117.471 26.12 117.361 26.7602 117.178 27.4919L93.5273 27.6016V21.4557L113.392 21.2911L109.111 23.9799C109.075 22.4801 108.855 21.2545 108.453 20.3034C108.051 19.3157 107.465 18.5657 106.697 18.0536C105.929 17.5414 104.959 17.2853 103.789 17.2853C102.581 17.2853 101.539 17.578 100.661 18.1633C99.7829 18.7486 99.1061 19.5717 98.6305 20.6326C98.155 21.6935 97.9172 22.9739 97.9172 24.4738C97.9172 26.0103 98.1733 27.3273 98.6854 28.4247C99.1976 29.4856 99.9292 30.2905 100.88 30.8392C101.832 31.3879 103.002 31.6623 104.392 31.6623C105.709 31.6623 106.862 31.4428 107.849 31.0038C108.874 30.5648 109.788 29.8881 110.593 28.9735L115.587 33.967C114.27 35.4669 112.66 36.601 110.758 37.3692C108.892 38.1375 106.77 38.5216 104.392 38.5216Z" fill="#111111"/>
<path d="M69.9922 50.1C67.029 50.1 64.3951 49.5879 62.0904 48.5635C59.8222 47.5758 58.048 46.1674 56.7676 44.3382L62.5294 38.6313C63.4439 39.6191 64.4499 40.3873 65.5474 40.936C66.6449 41.5214 67.9802 41.814 69.5532 41.814C71.4555 41.814 72.9554 41.3385 74.0529 40.3873C75.187 39.4727 75.754 38.1375 75.754 36.3815V29.4125L77.2905 23.5958L75.9186 17.8341V11.0846H85.3021V36.0523C85.3021 38.9057 84.6253 41.375 83.2717 43.4603C81.9548 45.582 80.1439 47.21 77.8392 48.344C75.5345 49.5147 72.9188 50.1 69.9922 50.1ZM69.5532 36.9302C67.0656 36.9302 64.8524 36.3632 62.9135 35.2291C61.0112 34.0585 59.5113 32.4672 58.4138 30.4551C57.3163 28.4431 56.7676 26.1932 56.7676 23.7056C56.7676 21.218 57.3163 18.9864 58.4138 17.011C59.5113 15.0355 61.0112 13.4624 62.9135 12.2918C64.8524 11.1212 67.0656 10.5358 69.5532 10.5358C71.236 10.5358 72.7725 10.8468 74.1626 11.4687C75.5894 12.054 76.7417 12.8954 77.6197 13.9929C78.4977 15.0538 79.0464 16.2976 79.2659 17.7243V29.7417C79.0464 31.1685 78.4794 32.4306 77.5648 33.5281C76.6869 34.5889 75.5528 35.4303 74.1626 36.0523C72.7725 36.6376 71.236 36.9302 69.5532 36.9302ZM71.3092 28.6443C72.3335 28.6443 73.2115 28.4248 73.9432 27.9858C74.7114 27.5102 75.2967 26.9066 75.6991 26.1749C76.1015 25.4067 76.3027 24.5836 76.3027 23.7056C76.3027 22.791 76.1015 21.9679 75.6991 21.2363C75.2967 20.5046 74.7297 19.9193 73.998 19.4803C73.2664 19.0047 72.3884 18.7669 71.3641 18.7669C70.3763 18.7669 69.4984 19.0047 68.7301 19.4803C67.9985 19.9193 67.4314 20.5229 67.029 21.2911C66.6266 22.0228 66.4254 22.8276 66.4254 23.7056C66.4254 24.547 66.6266 25.3518 67.029 26.1201C67.4314 26.8517 67.9985 27.4553 68.7301 27.9309C69.4618 28.4065 70.3215 28.6443 71.3092 28.6443Z" fill="#111111"/>
<path d="M40.7002 38.5216C38.176 38.5216 35.9262 38.0277 33.9507 37.04C32.0118 36.0157 30.4754 34.6072 29.3413 32.8147C28.2438 30.9855 27.6951 28.9186 27.6951 26.6139V11.0846H37.2432V26.6139C37.2432 27.3456 37.3895 27.9858 37.6821 28.5345C37.9748 29.0833 38.3772 29.504 38.8894 29.7966C39.4015 30.0893 40.0051 30.2356 40.7002 30.2356C41.7245 30.2356 42.5476 29.9064 43.1695 29.2479C43.828 28.5894 44.1573 27.7114 44.1573 26.6139V11.0846H53.7054V26.6139C53.7054 28.9552 53.1566 31.0221 52.0591 32.8147C50.9617 34.6072 49.4252 36.0157 47.4497 37.04C45.5108 38.0277 43.261 38.5216 40.7002 38.5216Z" fill="#111111"/>
<path d="M12.7857 38.6862C11.1394 38.6862 9.5115 38.4667 7.90186 38.0277C6.32881 37.5887 4.84721 37.0034 3.45706 36.2717C2.10351 35.5035 0.95115 34.6255 0 33.6378L5.21303 28.315C6.09102 29.2296 7.13363 29.9429 8.34086 30.4551C9.58467 30.9672 10.9016 31.2233 12.2918 31.2233C13.0966 31.2233 13.7002 31.1136 14.1026 30.8941C14.5416 30.6746 14.7611 30.3636 14.7611 29.9612C14.7611 29.3759 14.4502 28.9369 13.8283 28.6442C13.2429 28.315 12.4564 28.0406 11.4687 27.8211C10.5175 27.5651 9.5115 27.2724 8.4506 26.9432C7.38971 26.5773 6.36539 26.1018 5.37766 25.5164C4.38992 24.9311 3.5851 24.108 2.9632 23.0471C2.37788 21.9862 2.08521 20.6326 2.08521 18.9864C2.08521 17.267 2.5425 15.7671 3.45706 14.4867C4.40822 13.1698 5.72519 12.1455 7.408 11.4138C9.0908 10.6456 11.0663 10.2614 13.3344 10.2614C15.6391 10.2614 17.8341 10.6639 19.9193 11.4687C22.0045 12.2369 23.6873 13.4076 24.9677 14.9806L19.6998 20.3034C18.8218 19.3157 17.8524 18.6389 16.7915 18.2731C15.7306 17.8706 14.7611 17.6694 13.8831 17.6694C13.0417 17.6694 12.4381 17.7975 12.0723 18.0536C11.7065 18.2731 11.5236 18.584 11.5236 18.9864C11.5236 19.462 11.8162 19.8461 12.4015 20.1388C13.0234 20.4314 13.81 20.7058 14.7611 20.9619C15.7489 21.1814 16.7549 21.474 17.7792 21.8399C18.8401 22.2057 19.8461 22.7179 20.7973 23.3763C21.785 23.9982 22.5715 24.8396 23.1568 25.9005C23.7788 26.9614 24.0897 28.3333 24.0897 30.0161C24.0897 32.6866 23.0654 34.8084 21.0168 36.3815C18.9681 37.918 16.2244 38.6862 12.7857 38.6862Z" fill="#111111"/>
<rect x="27.1543" y="2.79858" width="26.3395" height="4.93866" fill="#FF9900"/>
<rect x="204.946" y="11.0297" width="26.8883" height="4.93866" transform="rotate(90 204.946 11.0297)" fill="#FF9900"/>
</svg>
