<svg width="54" height="36" viewBox="0 0 54 36" fill="none" xmlns="http://www.w3.org/2000/svg">
<path d="M40.7005 35.7229C38.1763 35.7229 35.9264 35.229 33.951 34.2413C32.0121 33.217 30.4756 31.8086 29.3415 30.016C28.2441 28.1869 27.6953 26.12 27.6953 23.8152V8.28589H37.2434V23.8152C37.2434 24.5469 37.3897 25.1871 37.6824 25.7358C37.9751 26.2846 38.3775 26.7053 38.8896 26.9979C39.4018 27.2906 40.0054 27.4369 40.7005 27.4369C41.7248 27.4369 42.5479 27.1077 43.1698 26.4492C43.8283 25.7907 44.1575 24.9127 44.1575 23.8152V8.28589H53.7056V23.8152C53.7056 26.1565 53.1569 28.2235 52.0594 30.016C50.9619 31.8086 49.4254 33.217 47.45 34.2413C45.5111 35.229 43.2613 35.7229 40.7005 35.7229Z" fill="white"/>
<path d="M12.7857 35.8876C11.1394 35.8876 9.5115 35.6681 7.90186 35.2292C6.32881 34.7902 4.84721 34.2048 3.45706 33.4732C2.10351 32.7049 0.95115 31.827 0 30.8392L5.21303 25.5165C6.09102 26.431 7.13363 27.1444 8.34086 27.6565C9.58467 28.1687 10.9016 28.4248 12.2918 28.4248C13.0966 28.4248 13.7002 28.315 14.1026 28.0955C14.5416 27.876 14.7611 27.5651 14.7611 27.1627C14.7611 26.5773 14.4502 26.1384 13.8283 25.8457C13.2429 25.5164 12.4564 25.2421 11.4687 25.0226C10.5175 24.7665 9.5115 24.4738 8.4506 24.1446C7.38971 23.7788 6.36539 23.3032 5.37766 22.7179C4.38992 22.1326 3.5851 21.3094 2.9632 20.2485C2.37788 19.1876 2.08521 17.8341 2.08521 16.1879C2.08521 14.4685 2.5425 12.9686 3.45706 11.6882C4.40822 10.3712 5.72519 9.3469 7.408 8.61525C9.0908 7.84701 11.0663 7.46289 13.3344 7.46289C15.6391 7.46289 17.8341 7.8653 19.9193 8.67012C22.0045 9.43836 23.6873 10.609 24.9677 12.1821L19.6998 17.5048C18.8218 16.5171 17.8524 15.8403 16.7915 15.4745C15.7306 15.0721 14.7611 14.8709 13.8831 14.8709C13.0417 14.8709 12.4381 14.9989 12.0723 15.255C11.7065 15.4745 11.5236 15.7855 11.5236 16.1879C11.5236 16.6634 11.8162 17.0476 12.4015 17.3402C13.0234 17.6329 13.81 17.9072 14.7611 18.1633C15.7489 18.3828 16.7549 18.6755 17.7792 19.0413C18.8401 19.4071 19.8461 19.9193 20.7973 20.5778C21.785 21.1997 22.5715 22.0411 23.1568 23.102C23.7788 24.1629 24.0897 25.5347 24.0897 27.2175C24.0897 29.8881 23.0654 32.0099 21.0168 33.5829C18.9681 35.1194 16.2244 35.8876 12.7857 35.8876Z" fill="white"/>
<rect x="27.1543" width="26.3395" height="4.93866" fill="#FF9900"/>
</svg>
