<svg width="44" height="44" viewBox="0 0 44 44" fill="none" xmlns="http://www.w3.org/2000/svg">
<g clip-path="url(#clip0_19_99)">
<path d="M22 12.988C24.9157 12.988 25.3133 12.988 26.506 12.988C27.0779 12.988 27.4956 13.0651 27.8214 13.1569C28.2769 13.2853 28.7129 13.4786 29.1336 13.6952C29.3774 13.8207 29.5983 13.9598 29.8193 14.1807C30.2169 14.5783 30.4819 14.9759 30.6145 15.506C30.747 15.9036 30.8795 16.4337 31.012 17.494C31.012 18.6867 31.012 18.9518 31.012 22C31.012 25.0482 31.012 25.3133 31.012 26.506C31.012 27.0779 30.9349 27.4956 30.8431 27.8214C30.7147 28.2769 30.5214 28.7129 30.3048 29.1336C30.1793 29.3774 30.0402 29.5983 29.8193 29.8193C29.4217 30.2169 29.0241 30.4819 28.494 30.6145C28.0964 30.747 27.5663 30.8795 26.506 31.012C25.3133 31.012 25.0482 31.012 22 31.012C18.9518 31.012 18.6867 31.012 17.494 31.012C16.9221 31.012 16.5044 30.9349 16.1786 30.8431C15.7231 30.7147 15.2871 30.5214 14.8664 30.3048C14.6227 30.1793 14.4017 30.0402 14.1807 29.8193C13.7831 29.4217 13.5181 29.0241 13.3855 28.494C13.253 28.0964 13.1205 27.5663 12.988 26.506C12.988 25.3133 12.988 25.0482 12.988 22C12.988 18.9518 12.988 18.6867 12.988 17.494C12.988 16.9221 13.0651 16.5044 13.1569 16.1786C13.2853 15.7231 13.4786 15.2871 13.6952 14.8664C13.8207 14.6226 13.9598 14.4017 14.1807 14.1807C14.5783 13.7831 14.9759 13.5181 15.506 13.3855C15.9036 13.253 16.4337 13.1205 17.494 12.988C18.6867 12.988 19.0843 12.988 22 12.988ZM22 11C18.9518 11 18.6867 11 17.494 11C16.3012 11 15.506 11.2651 14.8434 11.5301C14.1807 11.7952 13.5181 12.1928 12.8554 12.8554C12.1928 13.5181 11.9277 14.0482 11.5301 14.8434C11.2651 15.506 11.1325 16.3012 11 17.494C11 18.6867 11 19.0843 11 22C11 25.0482 11 25.3133 11 26.506C11 27.6988 11.2651 28.494 11.5301 29.1566C11.7952 29.8193 12.1928 30.4819 12.8554 31.1446C13.5181 31.8072 14.0482 32.0723 14.8434 32.4699C15.506 32.7349 16.3012 32.8675 17.494 33C18.6867 33 19.0843 33 22 33C24.9157 33 25.3133 33 26.506 33C27.6988 33 28.494 32.7349 29.1566 32.4699C29.8193 32.2048 30.4819 31.8072 31.1446 31.1446C31.8072 30.4819 32.0723 29.9518 32.4699 29.1566C32.7349 28.494 32.8675 27.6988 33 26.506C33 25.3133 33 24.9157 33 22C33 19.0843 33 18.6867 33 17.494C33 16.3012 32.7349 15.506 32.4699 14.8434C32.2048 14.1807 31.8072 13.5181 31.1446 12.8554C30.4819 12.1928 29.9518 11.9277 29.1566 11.5301C28.494 11.2651 27.6988 11.1325 26.506 11C25.3133 11 25.0482 11 22 11Z" fill="#111111"/>
<path d="M22 16.3012C18.8193 16.3012 16.3012 18.8193 16.3012 22C16.3012 25.1807 18.8193 27.6988 22 27.6988C25.1807 27.6988 27.6988 25.1807 27.6988 22C27.6988 18.8193 25.1807 16.3012 22 16.3012ZM22 25.7108C20.012 25.7108 18.2892 24.1205 18.2892 22C18.2892 20.012 19.8795 18.2892 22 18.2892C23.988 18.2892 25.7108 19.8795 25.7108 22C25.7108 23.988 23.988 25.7108 22 25.7108Z" fill="#111111"/>
<path d="M27.8313 17.494C28.5633 17.494 29.1566 16.9006 29.1566 16.1687C29.1566 15.4367 28.5633 14.8434 27.8313 14.8434C27.0994 14.8434 26.506 15.4367 26.506 16.1687C26.506 16.9006 27.0994 17.494 27.8313 17.494Z" fill="#111111"/>
<circle cx="22" cy="22" r="21.5" stroke="#111111"/>
</g>
<defs>
<clipPath id="clip0_19_99">
<rect width="44" height="44" fill="white"/>
</clipPath>
</defs>
</svg>
