<svg width="44" height="44" viewBox="0 0 44 44" fill="none" xmlns="http://www.w3.org/2000/svg">
<g clip-path="url(#clip0_32_47)">
<circle cx="22" cy="22" r="21.5" fill="white" stroke="#111111"/>
<path d="M15.95 33H11.275V18.2875H15.95V33ZM13.6125 16.225C12.1 16.225 11 15.125 11 13.6125C11 12.1 12.2375 11 13.6125 11C15.125 11 16.225 12.1 16.225 13.6125C16.225 15.125 15.125 16.225 13.6125 16.225ZM33 33H28.325V25.025C28.325 22.6875 27.3625 22 25.9875 22C24.6125 22 23.2375 23.1 23.2375 25.1625V33H18.5625V18.2875H22.9625V20.35C23.375 19.3875 25.025 17.875 27.3625 17.875C29.975 17.875 32.725 19.3875 32.725 23.925V33H33Z" fill="#111111"/>
</g>
<defs>
<clipPath id="clip0_32_47">
<rect width="44" height="44" fill="white"/>
</clipPath>
</defs>
</svg>
