<svg width="30" height="30" viewBox="0 0 30 30" fill="none" xmlns="http://www.w3.org/2000/svg">
<path d="M8.99992 25L14.3333 21.6666L8.99992 18.3333V25ZM16.3333 9.33331H21.6666V7.33331H16.3333V9.33331ZM2.99992 29.6666C2.26659 29.6666 1.63881 29.4055 1.11659 28.8833C0.594363 28.3611 0.333252 27.7333 0.333252 27V16.3333C0.333252 15.6 0.594363 14.9722 1.11659 14.45C1.63881 13.9278 2.26659 13.6666 2.99992 13.6666H18.9999C19.7333 13.6666 20.361 13.9278 20.8833 14.45C21.4055 14.9722 21.6666 15.6 21.6666 16.3333V27C21.6666 27.7333 21.4055 28.3611 20.8833 28.8833C20.361 29.4055 19.7333 29.6666 18.9999 29.6666H2.99992ZM23.6666 17.6666V16.3333C23.6666 15.4889 23.461 14.7111 23.0499 14C22.6388 13.2889 22.0888 12.7333 21.3999 12.3333H21.6666C22.7777 12.3333 23.7221 11.9444 24.4999 11.1666C25.2777 10.3889 25.6666 9.44442 25.6666 8.33331C25.6666 7.2222 25.2777 6.27776 24.4999 5.49998C23.7221 4.7222 22.7777 4.33331 21.6666 4.33331H19.9999V6.33331H21.6666C22.2221 6.33331 22.6944 6.52776 23.0833 6.91665C23.4721 7.30554 23.6666 7.77776 23.6666 8.33331C23.6666 8.88887 23.4721 9.36109 23.0833 9.74998C22.6944 10.1389 22.2221 10.3333 21.6666 10.3333H19.9999V12.3333C19.8221 12.3333 19.6555 12.2222 19.4999 12C19.3444 11.7778 19.1777 11.6666 18.9999 11.6666H17.9999V10.3333H16.3333C15.7777 10.3333 15.3055 10.1389 14.9166 9.74998C14.5277 9.36109 14.3333 8.88887 14.3333 8.33331C14.3333 7.77776 14.5277 7.30554 14.9166 6.91665C15.3055 6.52776 15.7777 6.33331 16.3333 6.33331H17.9999V4.33331H16.3333C15.2221 4.33331 14.2777 4.7222 13.4999 5.49998C12.7221 6.27776 12.3333 7.2222 12.3333 8.33331C12.3333 9.04443 12.4999 9.68331 12.8333 10.25C13.1666 10.8166 13.5999 11.2889 14.1333 11.6666H8.33325V2.99998C8.33325 2.26665 8.59436 1.63887 9.11659 1.11665C9.63881 0.594424 10.2666 0.333313 10.9999 0.333313H26.9999C27.7333 0.333313 28.361 0.594424 28.8833 1.11665C29.4055 1.63887 29.6666 2.26665 29.6666 2.99998V15C29.6666 15.7333 29.4055 16.3611 28.8833 16.8833C28.361 17.4055 27.7333 17.6666 26.9999 17.6666H23.6666Z" fill="#7A7ED2"/>
</svg>
