<svg width="30" height="29" viewBox="0 0 30 29" fill="none" xmlns="http://www.w3.org/2000/svg">
<path d="M2.49992 22.2333L0.333252 20.6667L6.99992 9.99999L10.9999 14.6667L16.3333 5.99999L19.9666 11.4333C19.4555 11.4555 18.9721 11.5167 18.5166 11.6167C18.061 11.7167 17.611 11.8555 17.1666 12.0333L16.4333 10.9333L11.3666 19.1667L7.33325 14.4667L2.49992 22.2333ZM27.7666 28.6667L23.5999 24.5C23.1555 24.8111 22.661 25.0444 22.1166 25.2C21.5721 25.3555 21.011 25.4333 20.4333 25.4333C18.7666 25.4333 17.3499 24.85 16.1833 23.6833C15.0166 22.5167 14.4333 21.1 14.4333 19.4333C14.4333 17.7667 15.0166 16.35 16.1833 15.1833C17.3499 14.0167 18.7666 13.4333 20.4333 13.4333C22.0999 13.4333 23.5166 14.0167 24.6833 15.1833C25.8499 16.35 26.4333 17.7667 26.4333 19.4333C26.4333 20.0111 26.3555 20.5722 26.1999 21.1167C26.0444 21.6611 25.811 22.1667 25.4999 22.6333L29.6666 26.7667L27.7666 28.6667ZM20.4333 22.7667C21.3666 22.7667 22.1555 22.4444 22.7999 21.8C23.4444 21.1555 23.7666 20.3667 23.7666 19.4333C23.7666 18.5 23.4444 17.7111 22.7999 17.0667C22.1555 16.4222 21.3666 16.1 20.4333 16.1C19.4999 16.1 18.711 16.4222 18.0666 17.0667C17.4221 17.7111 17.0999 18.5 17.0999 19.4333C17.0999 20.3667 17.4221 21.1555 18.0666 21.8C18.711 22.4444 19.4999 22.7667 20.4333 22.7667ZM23.3999 12.1C22.9777 11.9222 22.5388 11.7778 22.0833 11.6667C21.6277 11.5555 21.1555 11.4889 20.6666 11.4667L27.4999 0.666656L29.6666 2.23332L23.3999 12.1Z" fill="#7A7ED2"/>
</svg>
