<svg width="32" height="16" viewBox="0 0 32 16" fill="none" xmlns="http://www.w3.org/2000/svg">
<path d="M0 16V13.9C0 12.9444 0.488889 12.1667 1.46667 11.5667C2.44444 10.9667 3.73333 10.6667 5.33333 10.6667C5.62222 10.6667 5.9 10.6722 6.16667 10.6833C6.43333 10.6944 6.68889 10.7222 6.93333 10.7667C6.62222 11.2333 6.38889 11.7222 6.23333 12.2333C6.07778 12.7444 6 13.2778 6 13.8333V16H0ZM8 16V13.8333C8 13.1222 8.19444 12.4722 8.58333 11.8833C8.97222 11.2944 9.52222 10.7778 10.2333 10.3333C10.9444 9.88889 11.7944 9.55556 12.7833 9.33333C13.7722 9.11111 14.8444 9 16 9C17.1778 9 18.2611 9.11111 19.25 9.33333C20.2389 9.55556 21.0889 9.88889 21.8 10.3333C22.5111 10.7778 23.0556 11.2944 23.4333 11.8833C23.8111 12.4722 24 13.1222 24 13.8333V16H8ZM26 16V13.8333C26 13.2556 25.9278 12.7111 25.7833 12.2C25.6389 11.6889 25.4222 11.2111 25.1333 10.7667C25.3778 10.7222 25.6278 10.6944 25.8833 10.6833C26.1389 10.6722 26.4 10.6667 26.6667 10.6667C28.2667 10.6667 29.5556 10.9611 30.5333 11.55C31.5111 12.1389 32 12.9222 32 13.9V16H26ZM5.33333 9.33333C4.6 9.33333 3.97222 9.07222 3.45 8.55C2.92778 8.02778 2.66667 7.4 2.66667 6.66667C2.66667 5.91111 2.92778 5.27778 3.45 4.76667C3.97222 4.25556 4.6 4 5.33333 4C6.08889 4 6.72222 4.25556 7.23333 4.76667C7.74444 5.27778 8 5.91111 8 6.66667C8 7.4 7.74444 8.02778 7.23333 8.55C6.72222 9.07222 6.08889 9.33333 5.33333 9.33333ZM26.6667 9.33333C25.9333 9.33333 25.3056 9.07222 24.7833 8.55C24.2611 8.02778 24 7.4 24 6.66667C24 5.91111 24.2611 5.27778 24.7833 4.76667C25.3056 4.25556 25.9333 4 26.6667 4C27.4222 4 28.0556 4.25556 28.5667 4.76667C29.0778 5.27778 29.3333 5.91111 29.3333 6.66667C29.3333 7.4 29.0778 8.02778 28.5667 8.55C28.0556 9.07222 27.4222 9.33333 26.6667 9.33333ZM16 8C14.8889 8 13.9444 7.61111 13.1667 6.83333C12.3889 6.05556 12 5.11111 12 4C12 2.86667 12.3889 1.91667 13.1667 1.15C13.9444 0.383333 14.8889 0 16 0C17.1333 0 18.0833 0.383333 18.85 1.15C19.6167 1.91667 20 2.86667 20 4C20 5.11111 19.6167 6.05556 18.85 6.83333C18.0833 7.61111 17.1333 8 16 8Z" fill="#7A7ED2"/>
</svg>
