<svg width="53" height="48" viewBox="0 0 53 48" fill="none" xmlns="http://www.w3.org/2000/svg">
<path d="M23.8591 33.5424C27.6839 33.5424 31.5086 33.5141 35.3325 33.5627C36.2391 33.5742 37.0746 33.4417 37.8897 33.0433C38.1494 32.9162 38.4197 32.8146 38.6901 32.7157C39.1932 32.5328 39.6359 32.3094 39.9683 31.7927C40.1937 31.442 40.5906 31.1611 40.9655 30.9907C43.3944 29.884 45.8332 28.802 48.2793 27.7412C49.5534 27.1892 50.9663 27.7094 51.6752 28.9301C52.3858 30.1542 52.2159 31.7476 51.2277 32.7192C50.9328 33.0089 50.5645 33.2385 50.1945 33.4055C47.9003 34.4424 45.5955 35.4502 43.2964 36.4748C42.6218 36.7751 41.9423 36.889 41.2268 36.6558C41.11 36.6178 40.9573 36.6373 40.8389 36.6841C39.7665 37.1081 38.695 37.5338 37.6341 37.9878C37.4968 38.0461 37.3523 38.2519 37.3229 38.4135C36.5004 42.949 33.374 46.2506 29.1523 46.9996C28.6582 47.087 28.1502 47.1135 27.6479 47.1161C25.1438 47.1276 22.6398 47.1259 20.1349 47.1206C15.2124 47.1091 11.1713 43.4056 10.4085 38.1423C10.2557 37.0895 10.2966 35.9996 10.2998 34.9273C10.3023 34.2569 10.7948 33.7102 11.4098 33.5883C11.609 33.5494 11.8157 33.5433 12.0182 33.5433C15.9655 33.5406 19.9119 33.5415 23.8591 33.5415V33.5424ZM11.6319 35.0907C11.6875 36.0985 11.6523 37.0824 11.8083 38.0302C12.5548 42.5745 15.9516 45.6093 20.228 45.6137C22.6643 45.6164 25.1006 45.6199 27.5377 45.6093C28.0261 45.6076 28.5202 45.5819 29.0021 45.4998C33.0212 44.8126 36.5797 40.9731 36.0463 35.0907H11.6319ZM40.6445 33.7022C40.6559 34.8407 41.5821 35.5703 42.4911 35.1773C44.9519 34.1147 47.4013 33.0221 49.849 31.9234C50.5824 31.5939 50.8912 30.7522 50.6135 29.9864C50.3333 29.2136 49.5419 28.8196 48.7946 29.1456C46.3502 30.2116 43.9114 31.2945 41.4776 32.3889C40.9246 32.637 40.6551 33.1334 40.6445 33.7014V33.7022ZM37.5181 36.4076C38.2539 36.1109 38.9817 35.8167 39.6922 35.5297C39.5223 35.0404 39.368 34.5952 39.2071 34.1306C39.0388 34.1942 38.8583 34.2543 38.6844 34.3311C38.285 34.506 37.7321 34.5767 37.5344 34.899C37.3343 35.2267 37.4854 35.8053 37.4838 36.2743C37.4838 36.2884 37.4903 36.3025 37.5181 36.4076Z" fill="#111111"/>
<path d="M20.1118 25.9782C20.4254 26.4137 20.6974 26.85 21.0241 27.2324C22.1103 28.5052 21.7852 30.1065 20.2931 30.731C19.6087 31.0172 18.9226 31.2989 18.2317 31.5657C16.804 32.1168 15.5683 31.1276 15.6067 29.49C15.619 28.9539 15.5732 28.416 15.5569 27.9673C14.7916 27.9285 14.1023 27.9859 13.4514 27.8428C11.568 27.4285 10.1918 25.5543 10.2972 23.6014C10.3764 22.1388 11.0763 20.9958 12.1079 20.1294C14.0949 18.46 16.3336 17.5282 18.8916 17.7826C20.7194 17.9645 22.036 19.1763 22.3855 20.8969C22.7702 22.7906 22.0123 24.7249 20.4899 25.7318C20.387 25.7998 20.2833 25.8669 20.1118 25.9782ZM17.1087 28.9725C17.0858 28.9786 17.0629 28.9848 17.0401 28.991C17.0327 29.1526 17.0262 29.3143 17.0172 29.475C16.9829 30.1313 17.2483 30.3565 17.8062 30.1339C18.4685 29.8698 19.1301 29.6031 19.7892 29.3302C20.3519 29.0979 20.3805 28.7905 20.0089 28.2694C19.5393 27.6105 19.0827 26.9277 18.7201 26.1964C18.2946 25.3379 18.4538 25.0226 19.2967 24.6852C20.5014 24.2038 21.2217 22.886 21.0641 21.4516C20.9326 20.2539 20.0644 19.451 18.7315 19.2779C17.3741 19.1021 16.1188 19.5058 14.8953 20.0684C13.8058 20.5692 12.8102 21.2166 12.1462 22.3269C11.813 22.8842 11.6039 23.4804 11.7166 24.1605C12.0098 25.9332 13.8989 26.9639 15.5046 26.2282C16.1147 25.9482 16.4708 26.0939 16.6546 26.7891C16.8441 27.5045 16.96 28.2429 17.1087 28.9707V28.9725Z" fill="#111111"/>
<path d="M30.3072 13.6013C30.0916 14.0464 29.8433 14.4836 29.6611 14.9509C29.0184 16.5999 27.5434 16.924 26.3697 15.6575C25.8789 15.1275 25.3864 14.5984 24.8988 14.065C23.7905 12.8523 24.0919 11.2412 25.535 10.5744C25.99 10.3642 26.4196 10.0895 26.8924 9.82625C26.3869 9.08256 26.0545 8.35388 25.9556 7.51479C25.5742 4.27239 28.0015 1.97859 30.9189 2.82474C31.7854 3.07647 32.563 3.52074 33.2719 4.10369C34.5525 5.1574 35.6445 6.39748 36.3738 7.9679C36.9349 9.1753 37.1628 10.441 36.8034 11.7694C36.1982 14.0093 33.7048 15.215 31.5535 14.3026C31.1533 14.133 30.785 13.8733 30.3072 13.6021V13.6013ZM29.7551 4.09485C28.7709 4.12047 28.0628 4.57181 27.6169 5.49657C27.0288 6.71545 27.273 8.14102 28.231 9.12496C28.7146 9.62134 28.7154 10.0038 28.2286 10.5011C27.5989 11.1449 26.8785 11.6334 26.0716 11.9778C25.5522 12.1995 25.486 12.5511 25.8732 12.9777C26.3689 13.5235 26.8704 14.0641 27.3719 14.6029C27.8227 15.0869 28.1208 15.0171 28.3642 14.3715C28.6917 13.5041 29.1433 12.7242 29.7526 12.0547C30.1814 11.5839 30.5081 11.6325 30.9761 12.0688C31.3583 12.4257 31.792 12.786 32.2608 12.953C33.9596 13.5589 35.6649 12.2499 35.5767 10.4436C35.5555 10.01 35.4828 9.55245 35.3227 9.15852C34.4529 7.00957 33.0114 5.44446 31.0439 4.46759C30.6453 4.26974 30.1863 4.21586 29.7551 4.09574V4.09485Z" fill="#111111"/>
<path d="M21.8417 6.02566C21.9602 5.79778 22.0745 5.56637 22.1987 5.34114C22.4322 4.91895 22.8136 4.78558 23.1648 4.99579C23.5054 5.20071 23.6622 5.63791 23.4295 6.01859C23.026 6.6775 22.9811 7.23395 23.3225 7.99884C23.7994 9.06669 23.534 10.1584 22.8651 11.1026C21.4089 13.1579 19.4724 14.4192 17.1733 15.0401C16.4644 15.2318 15.7326 15.3386 15.0057 15.4278C13.8297 15.5718 12.8055 14.8184 12.4772 13.6181C12.1496 12.4221 12.6331 11.1865 13.6973 10.6133C14.8252 10.0047 15.8731 9.27778 16.7609 8.30533C17.1235 7.90875 17.4576 7.48037 17.79 7.05288C18.8435 5.69709 20.1871 5.32878 21.7013 5.99033C21.7372 6.00623 21.778 6.00976 21.8417 6.02566ZM14.9878 13.944C15.4166 13.8707 15.8494 13.8159 16.2741 13.7223C18.4629 13.2365 20.3283 12.1563 21.7282 10.2255C22.0663 9.75827 22.2199 9.24599 22.0843 8.66039C21.9063 7.89108 21.4522 7.38851 20.7416 7.2207C20.0155 7.04935 19.3875 7.30637 18.9301 7.94054C17.6969 9.65316 16.1875 10.9878 14.3793 11.9319C13.8746 12.1952 13.6777 12.6915 13.819 13.2047C13.9595 13.7161 14.3777 13.9731 14.987 13.944H14.9878Z" fill="#111111"/>
<path d="M28.0094 18.8547C29.7164 18.1225 31.0231 18.482 32.1494 20.003C33.2405 21.4771 34.5832 22.5865 36.1407 23.4291C37.512 24.171 37.891 25.9649 36.9901 27.25C36.505 27.9425 35.8377 28.3196 35.0463 28.2622C32.6607 28.0891 30.4473 27.3454 28.5787 25.6734C27.9767 25.1346 27.423 24.5049 26.9452 23.8354C26.1211 22.681 26.1072 21.4197 26.7802 20.1646C26.8987 19.9447 26.9174 19.7919 26.7868 19.579C26.63 19.3229 26.4936 19.0482 26.3809 18.7655C26.2265 18.3787 26.3751 17.9724 26.7075 17.7948C27.0318 17.6217 27.3879 17.7233 27.597 18.0731C27.744 18.3177 27.8648 18.58 28.0086 18.8556L28.0094 18.8547ZM34.9067 26.7492C35.5249 26.7722 35.9145 26.4692 36.037 25.9728C36.1595 25.4747 35.9627 25.0066 35.4653 24.7469C33.6832 23.8142 32.1886 22.5061 30.966 20.8217C30.275 19.8705 29.1773 19.7141 28.3745 20.4154C27.5578 21.1282 27.5022 22.2411 28.2487 23.2153C30.0088 25.5135 32.3601 26.494 34.9067 26.7492Z" fill="#111111"/>
<path d="M10.2857 4.50728C10.2906 3.05522 11.3923 1.87873 12.7407 1.88491C14.0794 1.89109 15.1828 3.09673 15.1713 4.54084C15.1599 5.98672 14.0369 7.18705 12.7105 7.17027C11.3654 7.15349 10.2816 5.96287 10.2857 4.50728ZM11.6823 4.52759C11.6823 5.13262 12.1535 5.6449 12.7179 5.65197C13.2781 5.65903 13.7576 5.15293 13.769 4.54172C13.7804 3.91992 13.2855 3.38378 12.7122 3.39527C12.1462 3.40675 11.6831 3.9155 11.6823 4.52671V4.52759Z" fill="#111111"/>
<path d="M37.1078 20.7264C35.7545 20.7228 34.6829 19.5499 34.6895 18.0802C34.696 16.614 35.7806 15.4534 37.1356 15.4622C38.4922 15.471 39.5653 16.6466 39.5547 18.1102C39.5441 19.5808 38.4693 20.7308 37.1078 20.7273V20.7264ZM37.1266 19.2125C37.7097 19.2081 38.1549 18.7214 38.154 18.0872C38.154 17.4584 37.7008 16.9743 37.1152 16.9761C36.5345 16.9779 36.0853 17.469 36.0877 18.0996C36.0902 18.7285 36.5451 19.216 37.1266 19.2116V19.2125Z" fill="#111111"/>
<path d="M25.9929 32.0337C24.6396 32.0435 23.5419 30.8838 23.5256 29.4282C23.51 27.9788 24.5947 26.7873 25.9455 26.7696C27.2907 26.7528 28.3998 27.9249 28.4128 29.3769C28.4259 30.8308 27.3405 32.0232 25.9929 32.0329V32.0337ZM25.961 28.2879C25.3869 28.2932 24.9262 28.7887 24.923 29.4026C24.9197 30.0297 25.4048 30.534 25.9978 30.5207C26.567 30.5084 27.026 29.9943 27.0146 29.3831C27.0032 28.7684 26.5344 28.2817 25.961 28.287V28.2879Z" fill="#111111"/>
<path d="M11.6317 35.0907H36.0453C36.5786 40.9731 33.0201 44.8126 29.001 45.4998C28.5191 45.5819 28.0258 45.6075 27.5366 45.6093C25.1003 45.6199 22.664 45.6164 20.2269 45.6137C15.9505 45.6093 12.5538 42.5745 11.8073 38.0301C11.6513 37.0833 11.6864 36.0994 11.6309 35.0907H11.6317Z" fill="white"/>
<path d="M40.6445 33.7021C40.6543 33.1342 40.9247 32.6378 41.4776 32.3896C43.9114 31.2953 46.3502 30.2124 48.7947 29.1464C49.542 28.8204 50.3334 29.2135 50.6135 29.9872C50.8904 30.753 50.5817 31.5956 49.849 31.9242C47.4021 33.0229 44.952 34.1155 42.4912 35.1781C41.5821 35.5702 40.656 34.8415 40.6445 33.703V33.7021Z" fill="white"/>
<path d="M37.5181 36.4076C37.4912 36.3025 37.4838 36.2884 37.4838 36.2743C37.4855 35.8053 37.3344 35.2258 37.5345 34.899C37.7321 34.5767 38.285 34.506 38.6844 34.3311C38.8584 34.2552 39.0389 34.1951 39.2071 34.1306C39.368 34.5943 39.5224 35.0404 39.6923 35.5297C38.9817 35.8167 38.254 36.11 37.5181 36.4076Z" fill="white"/>
<path d="M17.1088 28.9725C16.961 28.2447 16.8442 27.5063 16.6547 26.7908C16.471 26.0957 16.1157 25.95 15.5048 26.23C13.8991 26.9657 12.01 25.935 11.7168 24.1623C11.6041 23.4822 11.8132 22.886 12.1464 22.3287C12.8104 21.2184 13.8052 20.5701 14.8955 20.0702C16.119 19.5085 17.3743 19.1039 18.7317 19.2797C20.0654 19.4528 20.9327 20.2557 21.0642 21.4534C21.2219 22.8887 20.5015 24.2065 19.2968 24.6869C18.4532 25.0235 18.2947 25.3397 18.7202 26.1982C19.082 26.9286 19.5394 27.6123 20.009 28.2712C20.3806 28.7923 20.3521 29.0997 19.7893 29.3319C19.1302 29.604 18.4687 29.8716 17.8063 30.1357C17.2485 30.3574 16.9831 30.1322 17.0174 29.4768C17.0255 29.3152 17.0329 29.1535 17.0402 28.9928C17.0631 28.9866 17.086 28.9804 17.1088 28.9742V28.9725Z" fill="white"/>
<path d="M29.7549 4.09488C30.1861 4.215 30.6451 4.26888 31.0437 4.46673C33.0112 5.4436 34.4535 7.00872 35.3225 9.15766C35.4818 9.55159 35.5553 10.0091 35.5765 10.4428C35.6647 12.249 33.9594 13.5589 32.2606 12.9521C31.7918 12.7843 31.3581 12.4248 30.9759 12.068C30.5079 11.6316 30.1812 11.5822 29.7524 12.0538C29.1431 12.7233 28.6915 13.5024 28.364 14.3706C28.1206 15.0162 27.8233 15.086 27.3717 14.602C26.8694 14.0632 26.3687 13.5227 25.873 12.9768C25.4858 12.5502 25.552 12.1987 26.0714 11.977C26.8792 11.6325 27.5987 11.1441 28.2284 10.5002C28.7152 10.0029 28.7135 9.62048 28.2309 9.1241C27.2728 8.14016 27.0286 6.71459 27.6167 5.49571C28.0626 4.57095 28.7707 4.12049 29.7549 4.09399V4.09488Z" fill="white"/>
<path d="M14.9879 13.9439C14.3786 13.973 13.9612 13.716 13.82 13.2046C13.6787 12.6915 13.8755 12.1951 14.3802 11.9319C16.1893 10.9877 17.6978 9.65308 18.931 7.94046C19.3884 7.3054 20.0165 7.04926 20.7425 7.22061C21.4531 7.38843 21.9064 7.891 22.0852 8.66031C22.2208 9.2459 22.0673 9.75907 21.7291 10.2254C20.3293 12.1562 18.4639 13.2364 16.275 13.7222C15.8503 13.8167 15.4175 13.8715 14.9887 13.9439H14.9879Z" fill="white"/>
<path d="M34.9069 26.7493C32.3595 26.494 30.009 25.5128 28.2489 23.2154C27.5024 22.2412 27.558 21.1274 28.3747 20.4155C29.1784 19.7151 30.276 19.8714 30.9662 20.8218C32.1888 22.5062 33.6834 23.8143 35.4655 24.747C35.9621 25.0067 36.1589 25.4757 36.0372 25.9729C35.9155 26.4693 35.526 26.7723 34.9069 26.7493Z" fill="white"/>
<path d="M11.6826 4.52762C11.6826 3.91641 12.1465 3.40678 12.7125 3.39618C13.2867 3.38469 13.7808 3.92171 13.7694 4.54263C13.7579 5.15296 13.2785 5.65994 12.7182 5.65288C12.1539 5.64581 11.6818 5.13353 11.6826 4.5285V4.52762Z" fill="white"/>
<path d="M37.1268 19.2126C36.5453 19.217 36.0904 18.7294 36.0879 18.1005C36.0855 17.4699 36.5347 16.9788 37.1153 16.9771C37.7009 16.9753 38.1534 17.4593 38.1542 18.0882C38.1542 18.7215 37.7099 19.209 37.1268 19.2134V19.2126Z" fill="white"/>
<path d="M25.9609 28.2879C26.5343 28.2826 27.0031 28.7693 27.0145 29.384C27.026 29.9952 26.5669 30.5093 25.9977 30.5216C25.4039 30.5349 24.9188 30.0305 24.9229 29.4034C24.9261 28.7887 25.3868 28.2941 25.9609 28.2888V28.2879Z" fill="white"/>
</svg>
