<svg width="46" height="45" viewBox="0 0 46 45" fill="none" xmlns="http://www.w3.org/2000/svg">
<path d="M12.8051 11.0938H13.4606C23.2516 11.0938 33.0425 11.0938 42.8334 11.0955C43.0596 11.0955 43.2883 11.0955 43.5111 11.1292C44.1701 11.2272 44.6607 11.754 44.7202 12.4134C44.733 12.5527 44.727 12.6945 44.727 12.8355C44.727 21.0233 44.7245 29.212 44.7355 37.3998C44.7355 37.8574 44.6029 38.1934 44.2738 38.5159C42.4687 40.2847 40.678 42.0686 38.8916 43.856C38.6237 44.1245 38.3397 44.2477 37.9546 44.2477C27.6679 44.2401 17.3812 44.2443 7.09459 44.2401C3.75045 44.2384 1.19452 41.7039 1.19282 38.391C1.18942 27.867 1.18857 17.344 1.19282 6.82004C1.19452 3.50119 3.90776 0.896592 7.21959 1.01395C10.2542 1.12117 12.726 3.71648 12.7991 6.89772C12.8272 8.10672 12.8059 9.31742 12.8068 10.5273C12.8068 10.6936 12.8068 10.8599 12.8068 11.0938H12.8051ZM37.4741 42.8006C37.4741 42.6014 37.4741 42.4502 37.4741 42.2983C37.4741 41.2007 37.4648 40.1032 37.4776 39.0056C37.4912 37.8354 38.2785 37.0578 39.4604 37.0435C40.4518 37.0317 41.4441 37.041 42.4364 37.041C42.7017 37.041 42.9669 37.041 43.2458 37.041V12.578H12.8051V13.1927C12.8051 20.2415 12.8051 27.2912 12.8042 34.3401C12.8042 34.5647 12.8 34.791 12.7736 35.0139C12.7132 35.5128 12.4335 35.8725 11.9939 36.1013C11.3519 36.4348 10.6054 36.2625 10.0969 35.6454C9.60886 35.0535 9.03323 34.5841 8.29348 34.3629C6.71537 33.8927 5.2767 34.1974 4.06761 35.3001C2.833 36.4255 2.39001 37.8515 2.77519 39.4784C3.25814 41.5182 4.99441 42.7981 7.21873 42.7981C17.1381 42.7998 27.0566 42.7981 36.9759 42.7981C37.117 42.7981 37.2582 42.7981 37.4741 42.7981V42.8006ZM11.3426 34.8484C11.3426 34.5765 11.3426 34.4262 11.3426 34.2751C11.3426 25.2878 11.3426 16.3013 11.3409 7.31395C11.3409 7.00494 11.3332 6.69425 11.3069 6.38693C11.1198 4.25597 9.12081 2.44753 6.96875 2.45428C4.53356 2.46273 2.64254 4.40794 2.64169 6.9298C2.63744 16.0151 2.63999 25.1012 2.63999 34.1865V34.5926C5.34898 31.847 9.36823 32.2936 11.3426 34.8475V34.8484ZM38.9315 41.541C39.9451 40.538 40.996 39.4961 42.0129 38.4897C41.2043 38.4897 40.3013 38.4838 39.3983 38.4931C39.0931 38.4965 38.9341 38.6831 38.9332 38.982C38.929 39.8659 38.9315 40.7507 38.9315 41.541Z" fill="#111111"/>
<path d="M37.4744 42.8006C37.2576 42.8006 37.1164 42.8006 36.9761 42.8006C27.0568 42.8006 17.1383 42.8015 7.21899 42.8006C4.99467 42.8006 3.2584 41.5207 2.77545 39.4809C2.39027 37.8532 2.83326 36.428 4.06787 35.3026C5.27696 34.2 6.71563 33.8952 8.29374 34.3655C9.03348 34.5858 9.60997 35.0552 10.0972 35.6479C10.6056 36.2651 11.3522 36.4373 11.9942 36.1038C12.4346 35.875 12.7135 35.5154 12.7739 35.0164C12.8011 34.7935 12.8045 34.5672 12.8045 34.3427C12.8062 27.2938 12.8053 20.2441 12.8053 13.1952V12.5806H43.2461V37.0427C42.968 37.0427 42.7019 37.0427 42.4366 37.0427C41.4444 37.0427 40.4529 37.0342 39.4607 37.0452C38.2779 37.0596 37.4906 37.8371 37.4778 39.0073C37.4651 40.1049 37.4744 41.2024 37.4744 42.3C37.4744 42.452 37.4744 42.6031 37.4744 42.8023V42.8006ZM17.1587 22.5836C15.2133 22.923 14.2661 23.9066 14.2584 25.6103C14.2457 28.4234 14.2499 31.2374 14.2576 34.0514C14.2601 35.0037 14.8332 35.5829 15.7847 35.599C16.6911 35.615 17.5983 35.6049 18.5047 35.6015C18.9962 35.599 19.4103 35.4309 19.7419 35.051C19.8269 34.9539 19.9978 34.8813 20.1296 34.8813C22.9772 34.872 25.8248 34.872 28.6732 34.8813C28.8067 34.8813 28.9835 34.9446 29.066 35.0409C29.4163 35.4521 29.861 35.6057 30.3831 35.6049C31.1909 35.6032 31.9986 35.6049 32.8055 35.6049C34.0265 35.6032 34.5707 35.0671 34.5716 33.8572C34.5733 31.1699 34.5724 28.4834 34.5707 25.796C34.5707 25.5858 34.5597 25.3739 34.5367 25.1645C34.4092 23.9775 33.5138 22.9787 32.3404 22.7119C32.1245 22.6629 31.9042 22.6317 31.6602 22.5878C31.6602 21.9233 31.6653 21.2775 31.6602 20.6324C31.6373 17.9696 29.7811 16.1434 27.0925 16.1384C25.3214 16.135 23.5503 16.1367 21.7791 16.1384C19.0106 16.1409 17.1647 17.9662 17.1579 20.7059C17.1562 21.3357 17.1579 21.9664 17.1579 22.5878L17.1587 22.5836ZM38.1674 34.1611C37.8995 34.1611 37.6742 34.1468 37.4515 34.1645C37.0297 34.1975 36.7491 34.4828 36.7415 34.8619C36.7347 35.2359 37.011 35.5736 37.4259 35.5846C38.4165 35.6099 39.4088 35.6099 40.3994 35.5863C40.8288 35.5762 41.0855 35.2672 41.0855 34.8737C41.0855 34.4626 40.8143 34.1907 40.3551 34.1611C40.1332 34.1468 39.9096 34.1586 39.6698 34.1586V29.1157C39.9377 29.1157 40.1783 29.1293 40.4164 29.1132C41.2956 29.0558 41.9358 28.3238 41.8117 27.4863C41.6654 26.5002 41.4954 25.5166 41.3143 24.5355C41.1884 23.8567 40.6842 23.3991 39.9963 23.3687C39.2761 23.3367 38.5517 23.3375 37.8315 23.3704C37.1717 23.4008 36.6836 23.8162 36.5553 24.4705C36.3571 25.4761 36.1752 26.4875 36.0468 27.504C35.9329 28.404 36.5697 29.0794 37.4872 29.1174C37.7082 29.1267 37.9302 29.1191 38.1699 29.1191V34.162L38.1674 34.1611Z" fill="white"/>
<path d="M11.3425 34.8484C9.36816 32.2944 5.3489 31.8478 2.63992 34.5934V34.1873C2.63992 25.102 2.63737 16.0159 2.64162 6.93062C2.64247 4.40876 4.53349 2.4627 6.96868 2.4551C9.12073 2.4475 11.1197 4.25679 11.3068 6.38775C11.334 6.69507 11.3408 7.00576 11.3408 7.31476C11.3425 16.3021 11.3425 25.2886 11.3425 34.2759C11.3425 34.4262 11.3425 34.5765 11.3425 34.8492V34.8484Z" fill="white"/>
<path d="M38.9314 41.541C38.9314 40.7507 38.9289 39.8659 38.9331 38.982C38.9348 38.6831 39.093 38.4965 39.3982 38.4931C40.3012 38.4839 41.2042 38.4898 42.0128 38.4898C40.9959 39.4961 39.9441 40.538 38.9314 41.541Z" fill="white"/>
<path d="M17.1586 22.5836C17.1586 21.9622 17.1577 21.3324 17.1586 20.7017C17.1645 17.962 19.0113 16.1367 21.7798 16.1342C23.5509 16.1325 25.3221 16.1308 27.0932 16.1342C29.7818 16.1392 31.6371 17.9662 31.6609 20.6282C31.6668 21.2741 31.6609 21.9191 31.6609 22.5836C31.9041 22.6275 32.1243 22.6587 32.3411 22.7077C33.5145 22.9745 34.409 23.9733 34.5374 25.1603C34.5603 25.3697 34.5714 25.5816 34.5714 25.7918C34.5739 28.4792 34.5739 31.1657 34.5722 33.853C34.5722 35.0629 34.0272 35.5998 32.8062 35.6007C31.9984 35.6015 31.1907 35.599 30.3838 35.6007C29.8617 35.6024 29.417 35.4478 29.0667 35.0367C28.9842 34.9404 28.8074 34.878 28.6739 34.8771C25.8263 34.8678 22.9787 34.8678 20.1303 34.8771C19.9985 34.8771 19.8276 34.9497 19.7425 35.0468C19.4109 35.4267 18.9969 35.5948 18.5054 35.5973C17.599 35.6015 16.6917 35.6108 15.7854 35.5948C14.8339 35.5779 14.26 34.9995 14.2583 34.0472C14.2506 31.2332 14.2464 28.4201 14.2591 25.6061C14.2668 23.9024 15.214 22.9196 17.1594 22.5794L17.1586 22.5836ZM28.7691 25.2777C28.9111 24.3397 29.3226 23.6187 30.0794 23.1003C30.1661 23.0412 30.1976 22.8563 30.1993 22.7288C30.2095 21.9698 30.2163 21.2099 30.1993 20.4509C30.1644 18.8536 29.0021 17.6302 27.3908 17.5931C25.4088 17.5475 23.4242 17.5508 21.4422 17.5914C19.8174 17.6243 18.6363 18.8688 18.6142 20.4771C18.6057 21.1238 18.6321 21.7722 18.6049 22.4173C18.5887 22.8073 18.6516 23.0969 19.013 23.3384C19.2715 23.5106 19.4841 23.7934 19.6346 24.0704C19.831 24.4326 19.9466 24.8387 20.1116 25.265C22.9744 24.6242 25.8637 24.6318 28.7682 25.276L28.7691 25.2777ZM20.0776 33.403H28.7181V29.8579H20.0776V33.403ZM18.6057 34.1282C18.6057 31.2045 18.6151 28.3382 18.5981 25.4719C18.5947 24.8395 18.2444 24.3802 17.639 24.1582C16.6849 23.8086 15.7207 24.49 15.7165 25.5377C15.7046 28.3205 15.7122 31.1032 15.7139 33.8859C15.7139 33.9644 15.7386 34.043 15.7522 34.1274H18.6057V34.1282ZM30.2078 34.1282H33.1098C33.1098 33.9366 33.1098 33.7711 33.1098 33.6056C33.1098 31.0205 33.1098 28.4344 33.1098 25.8493C33.1098 25.6812 33.1098 25.5115 33.0919 25.3444C33.0205 24.6706 32.4993 24.1548 31.8199 24.0754C31.1805 24.0011 30.5224 24.3912 30.3166 25.005C30.2375 25.2388 30.2137 25.5006 30.2129 25.7496C30.2061 28.3914 30.2086 31.0331 30.2086 33.674V34.1274L30.2078 34.1282ZM28.7334 26.7678C25.8348 26.0629 22.9608 26.051 20.0895 26.7712V28.3551H28.7334V26.7678Z" fill="#111111"/>
<path d="M38.1671 34.1611V29.1183C37.9273 29.1183 37.7054 29.1259 37.4843 29.1166C36.5669 29.0786 35.93 28.4023 36.0439 27.5032C36.1723 26.4867 36.3543 25.4761 36.5524 24.4697C36.6808 23.8162 37.1697 23.4 37.8287 23.3696C38.5489 23.3367 39.2733 23.3358 39.9935 23.3679C40.6822 23.3983 41.1856 23.8559 41.3114 24.5347C41.4934 25.5157 41.6626 26.4993 41.8088 27.4854C41.933 28.323 41.2927 29.055 40.4135 29.1124C40.1754 29.1276 39.9357 29.1149 39.667 29.1149V34.1578C39.9068 34.1578 40.1304 34.146 40.3523 34.1603C40.8106 34.1899 41.0827 34.4617 41.0827 34.8729C41.0827 35.2663 40.8259 35.5753 40.3965 35.5854C39.4059 35.6091 38.4137 35.6091 37.4231 35.5838C37.009 35.5728 36.7318 35.2359 36.7386 34.8611C36.7454 34.482 37.0269 34.1958 37.4486 34.1637C37.6714 34.1468 37.8975 34.1603 38.1645 34.1603L38.1671 34.1611ZM37.9494 24.8116C37.7896 25.7792 37.6365 26.707 37.4818 27.6416H40.3642C40.1992 26.6716 40.0402 25.7403 39.8821 24.8116H37.9486H37.9494Z" fill="#111111"/>
<path d="M28.7694 25.2776C25.8648 24.6335 22.9756 24.6259 20.1127 25.2667C19.9477 24.8403 19.8321 24.4342 19.6357 24.072C19.4852 23.7942 19.2726 23.5123 19.0141 23.34C18.6519 23.0986 18.589 22.809 18.606 22.4189C18.6332 21.773 18.606 21.1255 18.6154 20.4788C18.6366 18.8704 19.8177 17.626 21.4434 17.593C23.4254 17.5525 25.4099 17.55 27.3919 17.5947C29.0032 17.6319 30.1664 18.8544 30.2004 20.4526C30.2165 21.2116 30.2097 21.9714 30.2004 22.7305C30.1987 22.8579 30.1672 23.0428 30.0805 23.1019C29.3238 23.6203 28.9131 24.3413 28.7702 25.2793L28.7694 25.2776Z" fill="white"/>
<path d="M20.0776 33.403V29.8579H28.7182V33.403H20.0776Z" fill="white"/>
<path d="M18.6057 34.1282H15.7522C15.7378 34.043 15.7139 33.9645 15.7139 33.8868C15.7122 31.104 15.7046 28.3213 15.7165 25.5386C15.7208 24.4908 16.685 23.8086 17.639 24.159C18.2444 24.3811 18.5947 24.8412 18.5981 25.4727C18.6151 28.339 18.6057 31.2054 18.6057 34.1291V34.1282Z" fill="white"/>
<path d="M30.2079 34.1282V33.6748C30.2079 31.0331 30.2053 28.3913 30.2121 25.7504C30.2121 25.5014 30.2368 25.2396 30.3159 25.0058C30.5225 24.392 31.1797 24.0011 31.8192 24.0762C32.4994 24.1556 33.0197 24.6715 33.0912 25.3452C33.109 25.5124 33.109 25.682 33.109 25.8501C33.1099 28.4352 33.109 31.0213 33.109 33.6064C33.109 33.7719 33.109 33.9374 33.109 34.129H30.207L30.2079 34.1282Z" fill="white"/>
<path d="M28.7333 26.7679V28.3551H20.0894V26.7712C22.9599 26.0511 25.8347 26.0629 28.7333 26.7679Z" fill="white"/>
<path d="M37.9497 24.8116H39.8832C40.0414 25.7404 40.1995 26.6716 40.3653 27.6417H37.4829C37.6377 26.707 37.7907 25.7783 37.9506 24.8116H37.9497Z" fill="white"/>
</svg>
