<svg width="52" height="48" viewBox="0 0 52 48" fill="none" xmlns="http://www.w3.org/2000/svg">
<path d="M46.6505 29.2792C47.3018 29.2792 47.9633 29.3161 48.6186 29.268C49.222 29.224 49.701 28.7045 49.7897 28.091C49.8234 27.8568 49.8223 27.6155 49.8223 27.3772C49.8244 23.3564 49.8223 19.3346 49.8244 15.3137C49.8244 15.1102 49.8183 14.9027 49.8509 14.7022C49.9212 14.2717 50.2606 14.0018 50.6754 14.0386C51.1228 14.0785 51.3359 14.3413 51.3348 14.7871C51.3318 19.217 51.3491 23.6468 51.3145 28.0767C51.3022 29.6249 50.0038 30.8653 48.4576 30.9205C47.8349 30.943 47.2101 30.9246 46.6618 30.9246C46.5017 31.3848 46.4243 31.7948 46.2266 32.1343C45.8912 32.7111 45.3205 32.9278 44.6682 32.9309C43.8192 32.934 42.9702 32.9248 42.1212 32.9391C41.9479 32.9422 41.7247 32.9739 41.6136 33.0833C41.0225 33.6641 40.3121 33.8471 39.5151 33.8124C39.1808 33.7981 38.8454 33.8103 38.4602 33.8103C38.4602 34.0711 38.4602 34.2705 38.4602 34.4709C38.4602 38.3384 38.4602 42.2068 38.4602 46.0742C38.4602 46.9803 38.2247 47.2144 37.3074 47.2144C26.8972 47.2144 16.487 47.2144 6.07678 47.2144C5.14828 47.2144 4.93424 47.0048 4.94443 46.0722C4.95972 44.7101 4.93322 43.345 5.02801 41.988C5.13503 40.448 5.8342 39.1523 6.96349 38.1093C7.21625 37.8761 7.29473 37.644 7.29473 37.3147C7.2876 30.175 7.22543 23.0353 7.30798 15.8976C7.38239 9.51464 10.2953 4.7146 15.9387 1.78284C25.1778 -3.01719 36.5971 2.84429 38.2584 13.1561C38.4143 14.1265 38.4795 15.1205 38.4887 16.1042C38.5172 19.3243 38.4989 22.5445 38.4989 25.7646C38.4989 25.965 38.4989 26.1655 38.4989 26.4252C38.9372 26.4252 39.3224 26.4324 39.7077 26.4231C40.4201 26.4068 41.0306 26.644 41.579 27.0981C41.7308 27.2238 41.9601 27.3118 42.1579 27.3189C42.8876 27.3445 43.6184 27.3292 44.3482 27.3292C45.881 27.3292 46.3815 27.7474 46.6485 29.2792H46.6505ZM36.9181 26.3986C36.9252 26.2452 36.9364 26.1123 36.9364 25.9804C36.9364 22.521 36.9466 19.0605 36.9273 15.6011C36.9232 14.9057 36.8559 14.2042 36.7469 13.5171C35.6981 6.93465 30.0965 1.91169 23.5685 1.68161C16.7061 1.43925 10.8171 5.89978 9.26997 12.517C8.97643 13.7737 8.86534 15.0479 8.93057 16.2494C9.7439 16.1195 10.5185 15.9948 11.3084 15.869C11.3145 15.8496 11.3349 15.8025 11.343 15.7535C11.818 12.7839 13.8748 10.5321 16.8213 9.95844C17.9404 9.74063 19.1176 9.79176 20.2693 9.78358C21.2854 9.77642 22.323 9.74063 23.3157 9.91958C27.2692 10.6313 29.9171 13.8678 29.9406 17.9285C29.9559 20.5535 29.9436 23.1775 29.9436 25.8024C29.9436 25.9998 29.9436 26.1961 29.9436 26.4007H36.9181V26.3986ZM28.2772 26.4017C28.2976 26.325 28.3221 26.2769 28.3221 26.2278C28.3129 23.2306 28.3853 20.2314 28.266 17.2383C28.1488 14.3116 25.6996 11.7715 22.7796 11.4995C21.1132 11.344 19.4183 11.3389 17.7467 11.4463C15.1681 11.6109 13.1797 13.4322 12.8882 15.9989C12.7016 17.6422 12.7159 19.3417 12.8953 20.9891C13.5313 26.8373 19.1471 30.851 24.8904 29.676C25.3786 29.5758 25.5366 29.3948 25.5305 28.8845C25.5152 27.549 26.5038 26.5326 27.8329 26.4303C27.9817 26.4191 28.1315 26.4119 28.2762 26.4027L28.2772 26.4017ZM11.6733 45.6223C11.6733 44.7653 11.6733 43.9657 11.6733 43.166C11.6733 41.2773 12.6028 40.3488 14.4924 40.3488C18.9056 40.3488 23.3188 40.3488 27.732 40.3488H28.3394V33.7091C27.5689 33.7408 26.888 33.5905 26.3244 33.0812C25.7506 32.5628 25.5213 31.8879 25.4887 31.0974C23.5043 31.5709 21.5749 31.4788 19.616 30.9532C19.616 31.6793 19.616 32.3583 19.616 33.0373C19.616 33.8778 19.5599 33.9627 18.7802 34.2858C15.8215 35.514 12.8515 36.7176 9.90595 37.9774C8.43421 38.6073 7.2825 39.6197 6.77901 41.2077C6.32241 42.6496 6.58536 44.1334 6.52523 45.6223H11.6733ZM29.9701 45.6171H36.9069V33.8533H29.9701V45.6171ZM8.83476 36.7032C11.8496 35.4414 14.8043 34.2081 17.7518 32.9555C17.8701 32.9053 17.971 32.6753 17.9781 32.5249C18.0046 31.9646 17.9679 31.4001 17.9964 30.8397C18.0148 30.4869 17.8986 30.3039 17.5776 30.1413C15.3608 29.0164 13.6567 27.3476 12.5202 25.1316C12.0983 24.3084 11.8047 23.4188 11.4766 22.6191C10.5929 22.4811 9.7174 22.3451 8.83374 22.207V36.7043L8.83476 36.7032ZM33.9389 32.2448C35.8408 32.2448 37.7416 32.2468 39.6435 32.2448C40.4558 32.2437 40.7962 31.9104 40.8033 31.1076C40.8094 30.4429 40.8084 29.7793 40.8033 29.1146C40.7982 28.319 40.4945 28.0153 39.6863 28.002C39.1257 27.9928 38.5662 28 38.0056 28C34.8308 28 31.6559 28 28.4821 28C27.2703 28 27.0725 28.2035 27.0715 29.4388C27.0715 29.9838 27.0695 30.5288 27.0715 31.0739C27.0766 31.9431 27.3732 32.2437 28.2344 32.2448C30.1363 32.2468 32.0371 32.2448 33.9389 32.2448ZM13.2755 45.6161H28.2844V42.0647C28.1213 42.0575 28.0041 42.0473 27.8869 42.0473C23.3544 42.0473 18.822 42.0473 14.2896 42.0473C14.1877 42.0473 14.0847 42.0432 13.9848 42.0565C13.5822 42.1086 13.2989 42.3377 13.2857 42.7416C13.2561 43.6896 13.2765 44.6385 13.2765 45.6151L13.2755 45.6161ZM11.2095 17.6309C10.3513 17.5256 9.61956 17.5972 9.13135 18.3478C8.77463 18.8959 8.79196 19.6853 9.16906 20.2222C9.68173 20.9533 10.4207 20.9809 11.2095 20.895V17.6299V17.6309ZM42.4004 28.8876V31.304C43.1822 31.304 43.9262 31.3214 44.6682 31.2866C44.7895 31.2804 44.9913 31.0534 45.0015 30.9164C45.0402 30.3755 45.0117 29.8294 45.0198 29.2854C45.0239 29.0083 44.9128 28.8825 44.6295 28.8855C43.9017 28.8937 43.175 28.8886 42.4015 28.8886L42.4004 28.8876Z" fill="#111111"/>
<path d="M36.9182 26.3986H29.9437C29.9437 26.1951 29.9437 25.9978 29.9437 25.8004C29.9437 23.1754 29.9559 20.5515 29.9406 17.9265C29.9172 13.8658 27.2693 10.6303 23.3158 9.91756C22.3241 9.7386 21.2855 9.77439 20.2694 9.78155C19.1176 9.78973 17.9405 9.7386 16.8214 9.95642C13.8738 10.5301 11.817 12.7829 11.3431 15.7514C11.3349 15.8005 11.3146 15.8476 11.3084 15.867C10.5175 15.9938 9.74294 16.1175 8.93063 16.2474C8.86438 15.0458 8.97547 13.7717 9.27003 12.5149C10.8172 5.89776 16.7062 1.43722 23.5685 1.67958C30.0966 1.90966 35.6982 6.93364 36.7469 13.515C36.856 14.2022 36.9243 14.9037 36.9273 15.5991C36.9457 19.0585 36.9365 22.5189 36.9365 25.9783C36.9365 26.1103 36.9253 26.2432 36.9182 26.3966V26.3986Z" fill="white"/>
<path d="M28.2772 26.4017C28.1325 26.4109 27.9826 26.4181 27.8338 26.4293C26.5048 26.5326 25.5172 27.5491 25.5314 28.8835C25.5375 29.3928 25.3796 29.5748 24.8914 29.675C19.1481 30.85 13.5312 26.8373 12.8963 20.9881C12.7169 19.3418 12.7026 17.6422 12.8891 15.9979C13.1806 13.4322 15.1701 11.61 17.7477 11.4453C19.4182 11.339 21.1142 11.3431 22.7806 11.4985C25.7006 11.7705 28.1498 14.3106 28.267 17.2373C28.3873 20.2294 28.3139 23.2296 28.323 26.2268C28.323 26.2759 28.2986 26.324 28.2782 26.4007L28.2772 26.4017ZM22.8336 25.9569C24.0587 25.9446 25.1064 25.5305 25.9636 24.6684C26.3284 24.3013 26.3549 23.8708 26.0584 23.5313C25.7526 23.1816 25.3113 23.1345 24.9362 23.5119C23.8059 24.6469 21.9489 24.6807 20.7636 23.5139C20.3854 23.1417 19.9563 23.1857 19.6414 23.5354C19.3295 23.8821 19.357 24.2788 19.7382 24.6654C20.5944 25.5305 21.6401 25.9436 22.8326 25.9579L22.8336 25.9569ZM16.2556 17.6616C16.4034 17.861 16.5308 18.2097 16.7336 18.2619C17.0139 18.3335 17.4246 18.2803 17.6499 18.1085C18.453 17.496 18.7649 17.4694 19.4824 18.132C19.7943 18.4204 20.2621 18.4572 20.5424 18.2159C20.8716 17.9326 20.9185 17.4878 20.6565 17.1156C19.6934 15.7402 17.4532 15.7351 16.4951 17.1125C16.4024 17.2454 16.3606 17.4142 16.2546 17.6616H16.2556Z" fill="white"/>
<path d="M11.6733 45.6223H6.52522C6.58536 44.1324 6.3224 42.6486 6.77901 41.2078C7.28148 39.6197 8.43318 38.6063 9.90594 37.9774C12.8515 36.7176 15.8214 35.514 18.7802 34.2859C19.5609 33.9617 19.6149 33.8779 19.616 33.0373C19.616 32.3583 19.616 31.6793 19.616 30.9532C21.5749 31.4789 23.5043 31.5709 25.4887 31.0974C25.5213 31.8879 25.7496 32.5618 26.3244 33.0813C26.888 33.5905 27.5689 33.7408 28.3394 33.7091V40.3488H27.7319C23.3188 40.3488 18.9056 40.3488 14.4924 40.3488C12.6028 40.3488 11.6743 41.2773 11.6733 43.166C11.6733 43.9657 11.6733 44.7654 11.6733 45.6223Z" fill="white"/>
<path d="M29.9702 45.6171V33.8533H36.907V45.6171H29.9702Z" fill="white"/>
<path d="M8.83472 36.7032V22.2059C9.71735 22.344 10.5929 22.48 11.4775 22.618C11.8057 23.4187 12.0992 24.3074 12.5212 25.1305C13.6576 27.3465 15.3617 29.0154 17.5785 30.1402C17.8996 30.3028 18.0158 30.4858 17.9974 30.8386C17.9679 31.399 18.0056 31.9635 17.9791 32.5239C17.9719 32.6752 17.871 32.9043 17.7528 32.9544C14.8053 34.207 11.8506 35.4403 8.83573 36.7022L8.83472 36.7032Z" fill="white"/>
<path d="M33.9389 32.2447C32.037 32.2447 30.1362 32.2468 28.2343 32.2447C27.3721 32.2437 27.0755 31.942 27.0714 31.0739C27.0684 30.5288 27.0714 29.9838 27.0714 29.4388C27.0714 28.2035 27.2702 28 28.482 28C31.6569 28 34.8317 28 38.0055 28C38.5661 28 39.1256 27.9928 39.6862 28.002C40.4955 28.0153 40.7982 28.32 40.8033 29.1146C40.8073 29.7793 40.8094 30.4429 40.8033 31.1076C40.7961 31.9103 40.4557 32.2437 39.6434 32.2447C37.7415 32.2478 35.8407 32.2447 33.9389 32.2447Z" fill="white"/>
<path d="M13.2754 45.6161C13.2754 44.6396 13.255 43.6906 13.2846 42.7427C13.2968 42.3387 13.5812 42.1097 13.9838 42.0575C14.0847 42.0442 14.1876 42.0483 14.2885 42.0483C18.8209 42.0483 23.3534 42.0483 27.8858 42.0483C28.003 42.0483 28.1212 42.0586 28.2833 42.0657V45.6172H13.2744L13.2754 45.6161Z" fill="white"/>
<path d="M11.2096 17.6309V20.896C10.4208 20.9819 9.68185 20.9533 9.16918 20.2231C8.79208 19.6863 8.77475 18.8968 9.13147 18.3487C9.61968 17.5981 10.3515 17.5266 11.2096 17.6319V17.6309Z" fill="white"/>
<path d="M42.4004 28.8875C43.174 28.8875 43.9017 28.8926 44.6284 28.8845C44.9118 28.8814 45.0229 29.0072 45.0188 29.2843C45.0106 29.8283 45.0392 30.3744 45.0004 30.9153C44.9902 31.0513 44.7895 31.2794 44.6672 31.2855C43.9262 31.3203 43.1822 31.3029 42.3994 31.3029V28.8865L42.4004 28.8875Z" fill="white"/>
<path d="M22.8335 25.9568C21.6411 25.9436 20.5954 25.5294 19.7392 24.6643C19.357 24.2788 19.3305 23.881 19.6424 23.5343C19.9573 23.1836 20.3864 23.1406 20.7645 23.5129C21.9499 24.6796 23.8069 24.6459 24.9372 23.5108C25.3123 23.1335 25.7536 23.1815 26.0593 23.5302C26.3559 23.8697 26.3294 24.3003 25.9646 24.6674C25.1064 25.5294 24.0597 25.9436 22.8346 25.9558L22.8335 25.9568Z" fill="#111111"/>
<path d="M16.2556 17.6616C16.3616 17.4141 16.4034 17.2454 16.4961 17.1124C17.4542 15.735 19.6944 15.7401 20.6576 17.1155C20.9185 17.4877 20.8726 17.9326 20.5434 18.2158C20.2621 18.4571 19.7953 18.4203 19.4835 18.132C18.7659 17.4693 18.4541 17.4959 17.6509 18.1084C17.4257 18.2802 17.0149 18.3334 16.7346 18.2618C16.5318 18.2097 16.4054 17.861 16.2566 17.6616H16.2556Z" fill="#111111"/>
</svg>
